<?xml version="1.0" encoding="iso-8859-1"?>
<!-- Uploaded to: SVG Repo, www.svgrepo.com, Generator: SVG Repo Mixer Tools -->
<svg fill="#000000" height="800px" width="800px" version="1.1" id="Capa_1" xmlns="http://www.w3.org/2000/svg" xmlns:xlink="http://www.w3.org/1999/xlink" 
	 viewBox="0 0 490.318 490.318" xml:space="preserve">
<g>
	<path d="M356.085,154.91c-7.908,0-25.735,2.251-34.057,3.74c-7.089,1.268-14.074,1.887-20.878,1.888
		c-38.311,0.003-71.071-19.604-86.601-53.233c-4.506-9.757-7.496-19.925-8.942-30.373c-3.846,1.129-7.607,2.54-11.266,4.229
		c-25.71,11.873-54.568,35.219-46.04,79.007c0.766,3.926-0.311,7.986-2.922,11.017c-2.608,3.031-6.451,4.701-10.461,4.524
		c-1.503-0.065-2.636-0.094-3.671-0.094c-16.169,0-31.934,9.282-44.995,20.362H414.85
		C408.645,174.003,382.364,154.91,356.085,154.91z"/>
	<path d="M0,222.091v123.024c0,37.645,30.626,68.271,68.271,68.271h353.777c37.643,0,68.27-30.626,68.27-68.271V222.091H0z
		 M267.467,355.188c-18.571,16.577-46.141,17.602-63.743,0c-1.811-1.811-3.443-3.763-4.91-5.814
		c-12.13,1.676-24.555,2.13-36.005,2.13c-3.83,0-6.934-3.105-6.934-6.934c0-3.83,3.105-6.934,6.934-6.934
		c10.862,0,20.637-0.482,29.378-1.454c-5.081-15.83-1.773-33.756,11.537-44.737c31.667-26.125,63.31-2.019,98.884-37.592
		c5.108-5.108,11.098-1.487,10.828,6.333C312.716,281.058,302.54,323.88,267.467,355.188z"/>
</g>
</svg>